<svg id="图层_1" data-name="图层 1" xmlns="http://www.w3.org/2000/svg" viewBox="0 0 271 166"><circle cx="15" cy="15" r="15" style="fill:#f26406"/><circle cx="15" cy="61" r="15" style="fill:#f26406"/><circle cx="15" cy="106" r="15" style="fill:#f26406"/><circle cx="15" cy="151" r="15" style="fill:#f26406"/><circle cx="64" cy="15" r="15" style="fill:#f26406"/><circle cx="64" cy="61" r="15" style="fill:#f26406"/><circle cx="64" cy="106" r="15" style="fill:#f26406"/><circle cx="64" cy="151" r="15" style="fill:#f26406"/><circle cx="112" cy="15" r="15" style="fill:#f26406"/><circle cx="112" cy="61" r="15" style="fill:#f26406"/><circle cx="112" cy="106" r="15" style="fill:#f26406"/><circle cx="112" cy="151" r="15" style="fill:#f26406"/><circle cx="160" cy="15" r="15" style="fill:#f26406"/><circle cx="160" cy="61" r="15" style="fill:#f26406"/><circle cx="160" cy="106" r="15" style="fill:#f26406"/><circle cx="160" cy="151" r="15" style="fill:#f26406"/><circle cx="208" cy="15" r="15" style="fill:#f26406"/><circle cx="208" cy="61" r="15" style="fill:#f26406"/><circle cx="208" cy="106" r="15" style="fill:#f26406"/><circle cx="208" cy="151" r="15" style="fill:#f26406"/><circle cx="256" cy="15" r="15" style="fill:#f26406"/><circle cx="256" cy="61" r="15" style="fill:#f26406"/><circle cx="256" cy="106" r="15" style="fill:#f26406"/><circle cx="256" cy="151" r="15" style="fill:#f26406"/></svg>