<?xml version="1.0" standalone="no"?><!DOCTYPE svg PUBLIC "-//W3C//DTD SVG 1.1//EN" "http://www.w3.org/Graphics/SVG/1.1/DTD/svg11.dtd"><svg t="1628005214268" class="icon" viewBox="0 0 1024 1024" version="1.1" xmlns="http://www.w3.org/2000/svg" p-id="4325" xmlns:xlink="http://www.w3.org/1999/xlink" width="64" height="64"><defs><style type="text/css"></style></defs><path d="M512.7168 91.0848c-16.9472 0-30.72 13.7728-30.72 30.72s13.7728 30.72 30.72 30.72c196.9152 0 357.12 160.2048 357.12 357.12s-160.2048 357.12-357.12 357.12S155.5968 706.56 155.5968 509.6448c0-107.008 46.848-206.0288 127.3344-273.408v67.5328c0 16.9472 13.7728 30.72 30.72 30.72s30.72-13.7728 30.72-30.72V157.184c0-16.9472-13.7728-30.72-30.72-30.72h-140.288c-16.9472 0-30.72 13.7728-30.72 30.72s13.7728 30.72 30.72 30.72h71.5776C149.6576 266.9056 94.1568 383.5392 94.1568 509.6448c0 230.8096 187.7504 418.56 418.56 418.56s418.56-187.7504 418.56-418.56-187.8016-418.56-418.56-418.56z" fill="#6FB1F9" p-id="4326"></path><path d="M466.3296 594.176h173.9264c16.9472 0 30.72-13.7728 30.72-30.72s-13.7728-30.72-30.72-30.72H497.0496V405.1456c0-16.9472-13.7728-30.72-30.72-30.72s-30.72 13.7728-30.72 30.72v158.3104c0 16.9984 13.7728 30.72 30.72 30.72z" fill="#6FB1F9" p-id="4327"></path></svg>