<?xml version="1.0" standalone="no"?><!DOCTYPE svg PUBLIC "-//W3C//DTD SVG 1.1//EN" "http://www.w3.org/Graphics/SVG/1.1/DTD/svg11.dtd"><svg t="1628133443368" class="icon" viewBox="0 0 1024 1024" version="1.1" xmlns="http://www.w3.org/2000/svg" p-id="5811" xmlns:xlink="http://www.w3.org/1999/xlink" width="64" height="64"><defs><style type="text/css"></style></defs><path d="M147.36 844.9h740.27v73.41H147.36z" fill="#E6E9ED" p-id="5812"></path><path d="M869.84 884.94c0 9.83 7.95 17.79 17.78 17.79v-35.59c-9.82 0.01-17.78 7.97-17.78 17.8z" fill="#CCD1D9" p-id="5813"></path><path d="M173.3 867.33h714.33c9.83 0 17.81-7.96 17.81-17.79V101.86c0-9.83-7.98-17.79-17.81-17.79h-694.1c-39.31 0-71.17 31.87-71.17 71.18V884.94c0 29.49 23.91 53.39 53.39 53.39h711.87c9.83 0 17.81-7.96 17.81-17.79 0-9.83-7.98-17.81-17.81-17.81H175.75c-9.83 0-17.81-7.98-17.81-17.79 0-8.98 6.7-16.41 15.36-17.61z" fill="#ED5564" p-id="5814"></path><path d="M887.62 84.06h-35.59c9.83 0 17.81 7.96 17.81 17.79v747.68c0 9.83-7.98 17.79-17.81 17.79h35.59c9.83 0 17.81-7.96 17.81-17.79V101.86c0-9.83-7.98-17.8-17.81-17.8z" fill="#FFFFFF" opacity=".2" p-id="5815"></path><path d="M513.88 653.58c-9.83 0-17.78 7.96-17.78 17.79-0.03 9.83 7.95 17.79 17.78 17.79 9.83 0 17.81-7.96 17.81-17.79 0-9.83-7.98-17.79-17.81-17.79zM442.68 653.58c-4.22 0-8.11 1.47-11.16 3.95v-0.01c-0.05 0.04-5.16 3.88-11.63 5.73-7.59 2.18-13.09 0.84-18.43-4.48-14.52-14.46-33.37-19.24-53.08-13.47-13.22 3.87-22.58 11.33-23.78 12.32 0 0.01-0.03 0.02-0.03 0.02 0 0.01-0.03 0.03-0.03 0.03a17.764 17.764 0 0 0-6.44 13.7c0 9.83 7.98 17.79 17.78 17.79 4.33 0 8.29-1.54 11.37-4.09 0.05-0.03 4.9-3.79 11.11-5.61 7.27-2.13 12.65-0.78 17.96 4.51 10.5 10.45 23.33 15.85 37.2 15.85 5.27 0 10.69-0.78 16.19-2.36 13.5-3.87 23.1-11.39 24.14-12.24 4.04-3.27 6.62-8.25 6.62-13.86 0.02-9.82-7.93-17.78-17.79-17.78zM703.2 657.67h0.03l-0.03-0.01c-0.03-0.01-0.03-0.02-0.05-0.04-1.22-1.02-10.56-8.45-23.75-12.32-19.73-5.77-38.58-0.99-53.08 13.47-5.19 5.15-10.48 6.56-17.7 4.69-6.99-1.8-12.44-6-12.49-6.04l0.1 0.09v0.01a17.687 17.687 0 0 0-11.16-3.95c-9.83 0-17.81 7.96-17.81 17.79 0 5.61 2.61 10.58 6.65 13.86h-0.02c1.07 0.85 10.64 8.37 24.14 12.24 5.5 1.58 10.92 2.36 16.19 2.36 13.87 0 26.72-5.4 37.2-15.85 5.14-5.12 10.3-6.53 17.21-4.72 6.73 1.76 11.94 5.88 11.99 5.92l-0.08-0.05c3.08 2.53 7.01 4.04 11.31 4.04 9.83 0 17.78-7.96 17.78-17.79 0.01-5.51-2.49-10.44-6.43-13.7z m-22.71 27.4c0 0.01 0.03 0.01 0.03 0.01l-0.03-0.01zM513.88 262.03c-9.83 0-17.78 7.98-17.78 17.81 0 9.83 7.95 17.79 17.78 17.79 9.83 0 17.81-7.96 17.81-17.79 0-9.83-7.98-17.81-17.81-17.81zM585.08 297.63c4.22 0 8.11-1.49 11.16-3.95v0.01c0.05-0.04 5.16-3.88 11.63-5.75 7.59-2.18 13.11-0.83 18.46 4.5 10.48 10.45 23.26 15.85 36.97 15.85 5.27 0 10.64-0.8 16.11-2.38 13.22-3.87 22.55-11.34 23.78-12.33 0 0 0-0.01 0.03-0.02l0.03-0.01c3.91-3.27 6.44-8.2 6.44-13.7 0-9.83-7.98-17.81-17.81-17.81-4.33 0-8.29 1.54-11.37 4.09-0.02 0.04-4.9 3.79-11.11 5.62-7.27 2.13-12.64 0.77-17.96-4.52-14.47-14.42-33.45-19.2-53.39-13.48-13.51 3.87-23.07 11.39-24.12 12.24-4.04 3.27-6.65 8.25-6.65 13.86-0.01 9.82 7.97 17.78 17.8 17.78zM453.87 265.98c-1.04-0.85-10.64-8.37-24.14-12.24-19.94-5.74-38.9-0.94-53.39 13.48-5.14 5.12-10.3 6.55-17.21 4.73-6.7-1.76-11.91-5.88-11.97-5.92l0.05 0.05c-3.08-2.53-7.01-4.06-11.29-4.06-9.83 0-17.81 7.98-17.81 17.81 0 5.5 2.5 10.43 6.44 13.7 0 0 0.03 0.01 0.03 0.03 0 0 0 0.01 0.03 0.01 1.17 0.98 10.53 8.45 23.78 12.33 5.45 1.59 10.85 2.38 16.08 2.38 13.74 0 26.49-5.4 37-15.85 5.16-5.16 10.45-6.56 17.7-4.69 6.99 1.8 12.41 5.98 12.46 6.04l-0.1-0.09v-0.01c3.05 2.46 6.93 3.95 11.16 3.95 9.86 0 17.81-7.96 17.81-17.79-0.01-5.61-2.59-10.59-6.63-13.86z m-106.63 0.13l0.03 0.01-0.03-0.01z" fill="#DA4453" p-id="5816"></path><path d="M335.9 404.41c-5.4 0-10.22 2.42-13.48 6.22l-39.91 39.9-39.86-39.89c-3.29-3.81-8.11-6.23-13.53-6.23-9.8 0-17.78 7.96-17.78 17.79v106.78c0 9.83 7.98 17.81 17.78 17.81 9.86 0 17.81-7.98 17.81-17.81v-63.72l23.02 23.01c3.21 3.22 7.66 5.21 12.57 5.21 4.93 0 9.39-1.99 12.59-5.21l23.02-23.01v63.72c0 9.83 7.98 17.81 17.78 17.81 9.86 0 17.81-7.98 17.81-17.81V422.21c-0.02-9.83-7.97-17.8-17.82-17.8zM656.28 422.21c0-9.83-7.98-17.79-17.81-17.79-9.83 0-17.81 7.96-17.81 17.79v57.63l-57.51-69.02c-3.26-3.91-8.18-6.4-13.69-6.4-9.8 0-17.78 7.96-17.78 17.79v106.78c0 9.83 7.98 17.81 17.78 17.81 9.86 0 17.81-7.98 17.81-17.81v-57.63l57.51 69.02h0.03c3.26 3.91 8.16 6.41 13.66 6.41 9.83 0 17.81-7.98 17.81-17.81l-0.03-0.01V422.23c0-0.01 0.03-0.01 0.03-0.02zM816.45 422.21c0-9.83-7.98-17.79-17.81-17.79-9.83 0-17.81 7.96-17.81 17.79v62.29c0 14.72-11.97 26.7-26.7 26.7-14.7 0-26.7-11.98-26.7-26.7v-62.27-0.01c0-9.84-7.95-17.81-17.78-17.81-9.83 0-17.81 7.96-17.81 17.79v62.29c0 34.4 27.89 62.29 62.28 62.29 34.41 0 62.28-27.89 62.28-62.29v-62.27c0.03 0 0.05 0 0.05-0.01zM478.29 440.01c9.83 0 17.78-7.98 17.78-17.81 0-9.83-7.95-17.79-17.78-17.79h-71.2c-9.83 0-17.78 7.96-17.78 17.79h-0.03v106.78h0.03c0 9.83 7.95 17.81 17.78 17.81h71.2c9.83 0 17.78-7.98 17.78-17.81 0-9.83-7.95-17.79-17.78-17.79H424.9V493.4h35.59c9.83 0 17.81-7.98 17.81-17.81s-7.98-17.79-17.81-17.79H424.9v-17.79h53.39z" fill="#FFCE54" p-id="5817"></path></svg>