<?xml version="1.0" standalone="no"?><!DOCTYPE svg PUBLIC "-//W3C//DTD SVG 1.1//EN" "http://www.w3.org/Graphics/SVG/1.1/DTD/svg11.dtd"><svg t="1628132816049" class="icon" viewBox="0 0 1024 1024" version="1.1" xmlns="http://www.w3.org/2000/svg" p-id="4230" xmlns:xlink="http://www.w3.org/1999/xlink" width="64" height="64"><defs><style type="text/css"></style></defs><path d="M203.6224 393.1648V297.0624S221.2864 48.6912 512 48.6912s312.8832 228.7616 312.8832 254.9248v89.5488s6.5536 59.2384 60.1088 118.8352c53.6064 59.5968 40.4992 216.4736-98.048 259.584-103.2704 24.832-198.7072 20.9408-257.536 20.9408s-190.8736-5.2224-245.76-14.3872c-54.8864-9.1648-227.4816-74.752-135.936-266.1376 18.3296-30.6176 55.9104-76.3392 55.9104-118.8352z" fill="#CCDAFF" p-id="4231"></path><path d="M408.576 828.0064h229.5296c24.576 0 41.6768 24.2688 33.6384 47.4624-14.6432 42.3424-52.48 97.6384-150.1184 97.6384-99.328 0-134.7072-57.1904-147.3536-99.7888-6.7072-22.6304 10.7008-45.312 34.304-45.312z" fill="#7A7AF9" p-id="4232"></path></svg>